<svg width="998" height="37" viewBox="0 0 998 37" fill="none" xmlns="http://www.w3.org/2000/svg">
<rect x="1" y="1" width="225" height="35" rx="17.5" fill="#5690FF" stroke="#5690FF" stroke-width="2"/>
<path d="M41.229 13.8V25H38.637V15.88H36.397V13.8H41.229ZM45.1266 25.128C44.6893 25.128 44.3213 24.9787 44.0226 24.68C43.724 24.3813 43.5746 24.008 43.5746 23.56C43.5746 23.1013 43.724 22.7333 44.0226 22.456C44.3213 22.168 44.6893 22.024 45.1266 22.024C45.564 22.024 45.932 22.168 46.2306 22.456C46.5293 22.7333 46.6786 23.1013 46.6786 23.56C46.6786 24.008 46.5293 24.3813 46.2306 24.68C45.932 24.9787 45.564 25.128 45.1266 25.128ZM59.4614 25.192C58.2987 25.192 57.248 24.9413 56.3094 24.44C55.3814 23.9387 54.6507 23.2507 54.1174 22.376C53.5947 21.4907 53.3334 20.4987 53.3334 19.4C53.3334 18.3013 53.5947 17.3147 54.1174 16.44C54.6507 15.5547 55.3814 14.8613 56.3094 14.36C57.248 13.8587 58.2987 13.608 59.4614 13.608C60.624 13.608 61.6694 13.8587 62.5974 14.36C63.5254 14.8613 64.256 15.5547 64.7894 16.44C65.3227 17.3147 65.5894 18.3013 65.5894 19.4C65.5894 20.4987 65.3227 21.4907 64.7894 22.376C64.256 23.2507 63.5254 23.9387 62.5974 24.44C61.6694 24.9413 60.624 25.192 59.4614 25.192ZM59.4614 22.984C60.1227 22.984 60.72 22.8347 61.2534 22.536C61.7867 22.2267 62.2027 21.8 62.5014 21.256C62.8107 20.712 62.9654 20.0933 62.9654 19.4C62.9654 18.7067 62.8107 18.088 62.5014 17.544C62.2027 17 61.7867 16.5787 61.2534 16.28C60.72 15.9707 60.1227 15.816 59.4614 15.816C58.8 15.816 58.2027 15.9707 57.6694 16.28C57.136 16.5787 56.7147 17 56.4054 17.544C56.1067 18.088 55.9574 18.7067 55.9574 19.4C55.9574 20.0933 56.1067 20.712 56.4054 21.256C56.7147 21.8 57.136 22.2267 57.6694 22.536C58.2027 22.8347 58.8 22.984 59.4614 22.984ZM72.9294 16.264C73.7294 16.264 74.4547 16.4507 75.1054 16.824C75.7667 17.1867 76.284 17.704 76.6574 18.376C77.0307 19.0373 77.2174 19.8107 77.2174 20.696C77.2174 21.5813 77.0307 22.36 76.6574 23.032C76.284 23.6933 75.7667 24.2107 75.1054 24.584C74.4547 24.9467 73.7294 25.128 72.9294 25.128C71.8307 25.128 70.9667 24.7813 70.3374 24.088V28.104H67.8414V16.392H70.2254V17.384C70.844 16.6373 71.7454 16.264 72.9294 16.264ZM72.4974 23.08C73.1374 23.08 73.66 22.8667 74.0654 22.44C74.4814 22.0027 74.6894 21.4213 74.6894 20.696C74.6894 19.9707 74.4814 19.3947 74.0654 18.968C73.66 18.5307 73.1374 18.312 72.4974 18.312C71.8574 18.312 71.3294 18.5307 70.9134 18.968C70.508 19.3947 70.3054 19.9707 70.3054 20.696C70.3054 21.4213 70.508 22.0027 70.9134 22.44C71.3294 22.8667 71.8574 23.08 72.4974 23.08ZM79.3683 16.392H81.8643V25H79.3683V16.392ZM80.6163 15.192C80.1576 15.192 79.7843 15.0587 79.4963 14.792C79.2083 14.5253 79.0643 14.1947 79.0643 13.8C79.0643 13.4053 79.2083 13.0747 79.4963 12.808C79.7843 12.5413 80.1576 12.408 80.6163 12.408C81.0749 12.408 81.4483 12.536 81.7363 12.792C82.0243 13.048 82.1683 13.368 82.1683 13.752C82.1683 14.168 82.0243 14.5147 81.7363 14.792C81.4483 15.0587 81.0749 15.192 80.6163 15.192ZM87.5568 25.128C86.8421 25.128 86.1434 25.0427 85.4608 24.872C84.7781 24.6907 84.2341 24.4667 83.8288 24.2L84.6608 22.408C85.0448 22.6533 85.5088 22.856 86.0528 23.016C86.5968 23.1653 87.1301 23.24 87.6528 23.24C88.7088 23.24 89.2368 22.9787 89.2368 22.456C89.2368 22.2107 89.0928 22.0347 88.8048 21.928C88.5168 21.8213 88.0741 21.7307 87.4768 21.656C86.7728 21.5493 86.1914 21.4267 85.7328 21.288C85.2741 21.1493 84.8741 20.904 84.5328 20.552C84.2021 20.2 84.0368 19.6987 84.0368 19.048C84.0368 18.504 84.1914 18.024 84.5008 17.608C84.8208 17.1813 85.2794 16.8507 85.8768 16.616C86.4848 16.3813 87.1994 16.264 88.0208 16.264C88.6288 16.264 89.2314 16.3333 89.8288 16.472C90.4368 16.6 90.9381 16.7813 91.3328 17.016L90.5008 18.792C89.7434 18.3653 88.9168 18.152 88.0208 18.152C87.4874 18.152 87.0874 18.2267 86.8208 18.376C86.5541 18.5253 86.4208 18.7173 86.4208 18.952C86.4208 19.2187 86.5648 19.4053 86.8528 19.512C87.1408 19.6187 87.5994 19.72 88.2288 19.816C88.9328 19.9333 89.5088 20.0613 89.9568 20.2C90.4048 20.328 90.7941 20.568 91.1248 20.92C91.4554 21.272 91.6208 21.7627 91.6208 22.392C91.6208 22.9253 91.4608 23.4 91.1408 23.816C90.8208 24.232 90.3514 24.5573 89.7328 24.792C89.1248 25.016 88.3994 25.128 87.5568 25.128ZM103.74 16.264C104.54 16.264 105.265 16.4507 105.916 16.824C106.577 17.1867 107.095 17.704 107.468 18.376C107.841 19.0373 108.028 19.8107 108.028 20.696C108.028 21.5813 107.841 22.36 107.468 23.032C107.095 23.6933 106.577 24.2107 105.916 24.584C105.265 24.9467 104.54 25.128 103.74 25.128C102.641 25.128 101.777 24.7813 101.148 24.088V28.104H98.652V16.392H101.036V17.384C101.655 16.6373 102.556 16.264 103.74 16.264ZM103.308 23.08C103.948 23.08 104.471 22.8667 104.876 22.44C105.292 22.0027 105.5 21.4213 105.5 20.696C105.5 19.9707 105.292 19.3947 104.876 18.968C104.471 18.5307 103.948 18.312 103.308 18.312C102.668 18.312 102.14 18.5307 101.724 18.968C101.319 19.3947 101.116 19.9707 101.116 20.696C101.116 21.4213 101.319 22.0027 101.724 22.44C102.14 22.8667 102.668 23.08 103.308 23.08ZM112.563 17.528C112.862 17.112 113.262 16.7973 113.763 16.584C114.275 16.3707 114.862 16.264 115.523 16.264V18.568C115.246 18.5467 115.059 18.536 114.963 18.536C114.248 18.536 113.688 18.7387 113.283 19.144C112.878 19.5387 112.675 20.136 112.675 20.936V25H110.179V16.392H112.563V17.528ZM124.638 23.08V25H116.958V23.496L121.342 18.312H117.07V16.392H124.494V17.896L120.11 23.08H124.638ZM135.105 16.392L131.217 25.528C130.822 26.52 130.331 27.2187 129.745 27.624C129.169 28.0293 128.47 28.232 127.649 28.232C127.201 28.232 126.758 28.1627 126.321 28.024C125.883 27.8853 125.526 27.6933 125.249 27.448L126.161 25.672C126.353 25.8427 126.571 25.976 126.817 26.072C127.073 26.168 127.323 26.216 127.569 26.216C127.91 26.216 128.187 26.1307 128.401 25.96C128.614 25.8 128.806 25.528 128.977 25.144L129.009 25.064L125.281 16.392H127.857L130.273 22.232L132.705 16.392H135.105ZM141.691 16.264C142.491 16.264 143.217 16.4507 143.867 16.824C144.529 17.1867 145.046 17.704 145.419 18.376C145.793 19.0373 145.979 19.8107 145.979 20.696C145.979 21.5813 145.793 22.36 145.419 23.032C145.046 23.6933 144.529 24.2107 143.867 24.584C143.217 24.9467 142.491 25.128 141.691 25.128C140.593 25.128 139.729 24.7813 139.099 24.088V28.104H136.603V16.392H138.987V17.384C139.606 16.6373 140.507 16.264 141.691 16.264ZM141.259 23.08C141.899 23.08 142.422 22.8667 142.827 22.44C143.243 22.0027 143.451 21.4213 143.451 20.696C143.451 19.9707 143.243 19.3947 142.827 18.968C142.422 18.5307 141.899 18.312 141.259 18.312C140.619 18.312 140.091 18.5307 139.675 18.968C139.27 19.3947 139.067 19.9707 139.067 20.696C139.067 21.4213 139.27 22.0027 139.675 22.44C140.091 22.8667 140.619 23.08 141.259 23.08ZM151.461 16.264C152.795 16.264 153.819 16.584 154.533 17.224C155.248 17.8533 155.605 18.808 155.605 20.088V25H153.269V23.928C152.8 24.728 151.925 25.128 150.645 25.128C149.984 25.128 149.408 25.016 148.917 24.792C148.437 24.568 148.069 24.2587 147.813 23.864C147.557 23.4693 147.429 23.0213 147.429 22.52C147.429 21.72 147.728 21.0907 148.325 20.632C148.933 20.1733 149.867 19.944 151.125 19.944H153.109C153.109 19.4 152.944 18.984 152.613 18.696C152.283 18.3973 151.787 18.248 151.125 18.248C150.667 18.248 150.213 18.3227 149.765 18.472C149.328 18.6107 148.955 18.8027 148.645 19.048L147.749 17.304C148.219 16.9733 148.779 16.7173 149.429 16.536C150.091 16.3547 150.768 16.264 151.461 16.264ZM151.269 23.448C151.696 23.448 152.075 23.352 152.405 23.16C152.736 22.9573 152.971 22.664 153.109 22.28V21.4H151.397C150.373 21.4 149.861 21.736 149.861 22.408C149.861 22.728 149.984 22.984 150.229 23.176C150.485 23.3573 150.832 23.448 151.269 23.448ZM167.206 13.128V25H164.822V24.008C164.204 24.7547 163.308 25.128 162.134 25.128C161.324 25.128 160.588 24.9467 159.926 24.584C159.276 24.2213 158.764 23.704 158.39 23.032C158.017 22.36 157.83 21.5813 157.83 20.696C157.83 19.8107 158.017 19.032 158.39 18.36C158.764 17.688 159.276 17.1707 159.926 16.808C160.588 16.4453 161.324 16.264 162.134 16.264C163.233 16.264 164.092 16.6107 164.71 17.304V13.128H167.206ZM162.566 23.08C163.196 23.08 163.718 22.8667 164.134 22.44C164.55 22.0027 164.758 21.4213 164.758 20.696C164.758 19.9707 164.55 19.3947 164.134 18.968C163.718 18.5307 163.196 18.312 162.566 18.312C161.926 18.312 161.398 18.5307 160.982 18.968C160.566 19.3947 160.358 19.9707 160.358 20.696C160.358 21.4213 160.566 22.0027 160.982 22.44C161.398 22.8667 161.926 23.08 162.566 23.08ZM173.692 21.624L172.492 22.808V25H169.996V13.128H172.492V19.848L176.14 16.392H179.116L175.532 20.04L179.436 25H176.412L173.692 21.624ZM189.555 16.392V25H187.187V23.976C186.856 24.3493 186.461 24.6373 186.003 24.84C185.544 25.032 185.048 25.128 184.515 25.128C183.384 25.128 182.488 24.8027 181.827 24.152C181.165 23.5013 180.835 22.536 180.835 21.256V16.392H183.331V20.888C183.331 22.2747 183.912 22.968 185.075 22.968C185.672 22.968 186.152 22.776 186.515 22.392C186.877 21.9973 187.059 21.416 187.059 20.648V16.392H189.555Z" fill="white"/>
<g opacity="0.3">
<rect x="258" y="1" width="225" height="35" rx="17.5" fill="#A2A2A2" stroke="#A1A1A1" stroke-width="2"/>
<path d="M297.902 22.888V25H289.438V23.32L293.758 19.24C294.217 18.8027 294.526 18.4293 294.686 18.12C294.846 17.8 294.926 17.4853 294.926 17.176C294.926 16.728 294.771 16.3867 294.462 16.152C294.163 15.9067 293.721 15.784 293.134 15.784C292.643 15.784 292.201 15.88 291.806 16.072C291.411 16.2533 291.081 16.5307 290.814 16.904L288.926 15.688C289.363 15.0373 289.966 14.5307 290.734 14.168C291.502 13.7947 292.382 13.608 293.374 13.608C294.206 13.608 294.931 13.7467 295.55 14.024C296.179 14.2907 296.665 14.6747 297.006 15.176C297.358 15.6667 297.534 16.248 297.534 16.92C297.534 17.528 297.406 18.0987 297.15 18.632C296.894 19.1653 296.398 19.7733 295.662 20.456L293.086 22.888H297.902ZM301.08 25.128C300.642 25.128 300.274 24.9787 299.976 24.68C299.677 24.3813 299.528 24.008 299.528 23.56C299.528 23.1013 299.677 22.7333 299.976 22.456C300.274 22.168 300.642 22.024 301.08 22.024C301.517 22.024 301.885 22.168 302.184 22.456C302.482 22.7333 302.632 23.1013 302.632 23.56C302.632 24.008 302.482 24.3813 302.184 24.68C301.885 24.9787 301.517 25.128 301.08 25.128ZM314.839 13.8C315.831 13.8 316.689 13.9653 317.415 14.296C318.151 14.6267 318.716 15.096 319.111 15.704C319.505 16.312 319.703 17.032 319.703 17.864C319.703 18.6853 319.505 19.4053 319.111 20.024C318.716 20.632 318.151 21.1013 317.415 21.432C316.689 21.752 315.831 21.912 314.839 21.912H312.583V25H309.991V13.8H314.839ZM314.695 19.8C315.473 19.8 316.065 19.6347 316.471 19.304C316.876 18.9627 317.079 18.4827 317.079 17.864C317.079 17.2347 316.876 16.7547 316.471 16.424C316.065 16.0827 315.473 15.912 314.695 15.912H312.583V19.8H314.695ZM324.909 25.128C324.195 25.128 323.496 25.0427 322.813 24.872C322.131 24.6907 321.587 24.4667 321.181 24.2L322.013 22.408C322.397 22.6533 322.861 22.856 323.405 23.016C323.949 23.1653 324.483 23.24 325.005 23.24C326.061 23.24 326.589 22.9787 326.589 22.456C326.589 22.2107 326.445 22.0347 326.157 21.928C325.869 21.8213 325.427 21.7307 324.829 21.656C324.125 21.5493 323.544 21.4267 323.085 21.288C322.627 21.1493 322.227 20.904 321.885 20.552C321.555 20.2 321.389 19.6987 321.389 19.048C321.389 18.504 321.544 18.024 321.853 17.608C322.173 17.1813 322.632 16.8507 323.229 16.616C323.837 16.3813 324.552 16.264 325.373 16.264C325.981 16.264 326.584 16.3333 327.181 16.472C327.789 16.6 328.291 16.7813 328.685 17.016L327.853 18.792C327.096 18.3653 326.269 18.152 325.373 18.152C324.84 18.152 324.44 18.2267 324.173 18.376C323.907 18.5253 323.773 18.7173 323.773 18.952C323.773 19.2187 323.917 19.4053 324.205 19.512C324.493 19.6187 324.952 19.72 325.581 19.816C326.285 19.9333 326.861 20.0613 327.309 20.2C327.757 20.328 328.147 20.568 328.477 20.92C328.808 21.272 328.973 21.7627 328.973 22.392C328.973 22.9253 328.813 23.4 328.493 23.816C328.173 24.232 327.704 24.5573 327.085 24.792C326.477 25.016 325.752 25.128 324.909 25.128ZM339.381 16.392L335.493 25.528C335.098 26.52 334.608 27.2187 334.021 27.624C333.445 28.0293 332.746 28.232 331.925 28.232C331.477 28.232 331.034 28.1627 330.597 28.024C330.16 27.8853 329.802 27.6933 329.525 27.448L330.437 25.672C330.629 25.8427 330.848 25.976 331.093 26.072C331.349 26.168 331.6 26.216 331.845 26.216C332.186 26.216 332.464 26.1307 332.677 25.96C332.89 25.8 333.082 25.528 333.253 25.144L333.285 25.064L329.557 16.392H332.133L334.549 22.232L336.981 16.392H339.381ZM344.805 25.128C343.888 25.128 343.061 24.9413 342.325 24.568C341.6 24.184 341.029 23.656 340.613 22.984C340.208 22.312 340.005 21.5493 340.005 20.696C340.005 19.8427 340.208 19.08 340.613 18.408C341.029 17.736 341.6 17.2133 342.325 16.84C343.061 16.456 343.888 16.264 344.805 16.264C345.712 16.264 346.501 16.456 347.173 16.84C347.856 17.2133 348.352 17.752 348.661 18.456L346.725 19.496C346.277 18.7067 345.632 18.312 344.789 18.312C344.138 18.312 343.6 18.5253 343.173 18.952C342.746 19.3787 342.533 19.96 342.533 20.696C342.533 21.432 342.746 22.0133 343.173 22.44C343.6 22.8667 344.138 23.08 344.789 23.08C345.642 23.08 346.288 22.6853 346.725 21.896L348.661 22.952C348.352 23.6347 347.856 24.168 347.173 24.552C346.501 24.936 345.712 25.128 344.805 25.128ZM355.748 16.264C356.814 16.264 357.673 16.584 358.324 17.224C358.985 17.864 359.316 18.8133 359.316 20.072V25H356.82V20.456C356.82 19.7733 356.67 19.2667 356.372 18.936C356.073 18.5947 355.641 18.424 355.076 18.424C354.446 18.424 353.945 18.6213 353.572 19.016C353.198 19.4 353.012 19.976 353.012 20.744V25H350.516V13.128H353.012V17.288C353.342 16.9573 353.742 16.7067 354.212 16.536C354.681 16.3547 355.193 16.264 355.748 16.264ZM366.248 25.128C365.341 25.128 364.525 24.9413 363.8 24.568C363.085 24.184 362.525 23.656 362.12 22.984C361.715 22.312 361.512 21.5493 361.512 20.696C361.512 19.8427 361.715 19.08 362.12 18.408C362.525 17.736 363.085 17.2133 363.8 16.84C364.525 16.456 365.341 16.264 366.248 16.264C367.155 16.264 367.965 16.456 368.68 16.84C369.395 17.2133 369.955 17.736 370.36 18.408C370.765 19.08 370.968 19.8427 370.968 20.696C370.968 21.5493 370.765 22.312 370.36 22.984C369.955 23.656 369.395 24.184 368.68 24.568C367.965 24.9413 367.155 25.128 366.248 25.128ZM366.248 23.08C366.888 23.08 367.411 22.8667 367.816 22.44C368.232 22.0027 368.44 21.4213 368.44 20.696C368.44 19.9707 368.232 19.3947 367.816 18.968C367.411 18.5307 366.888 18.312 366.248 18.312C365.608 18.312 365.08 18.5307 364.664 18.968C364.248 19.3947 364.04 19.9707 364.04 20.696C364.04 21.4213 364.248 22.0027 364.664 22.44C365.08 22.8667 365.608 23.08 366.248 23.08ZM381.548 20.728C381.548 20.76 381.532 20.984 381.5 21.4H374.988C375.106 21.9333 375.383 22.3547 375.82 22.664C376.258 22.9733 376.802 23.128 377.452 23.128C377.9 23.128 378.295 23.064 378.636 22.936C378.988 22.7973 379.314 22.584 379.612 22.296L380.94 23.736C380.13 24.664 378.946 25.128 377.388 25.128C376.418 25.128 375.559 24.9413 374.812 24.568C374.066 24.184 373.49 23.656 373.084 22.984C372.679 22.312 372.476 21.5493 372.476 20.696C372.476 19.8533 372.674 19.096 373.068 18.424C373.474 17.7413 374.023 17.2133 374.716 16.84C375.42 16.456 376.204 16.264 377.068 16.264C377.911 16.264 378.674 16.4453 379.356 16.808C380.039 17.1707 380.572 17.6933 380.956 18.376C381.351 19.048 381.548 19.832 381.548 20.728ZM377.084 18.152C376.519 18.152 376.044 18.312 375.66 18.632C375.276 18.952 375.042 19.3893 374.956 19.944H379.196C379.111 19.4 378.876 18.968 378.492 18.648C378.108 18.3173 377.639 18.152 377.084 18.152ZM392.458 13.128V25H390.074V24.008C389.455 24.7547 388.559 25.128 387.386 25.128C386.575 25.128 385.839 24.9467 385.178 24.584C384.527 24.2213 384.015 23.704 383.642 23.032C383.269 22.36 383.082 21.5813 383.082 20.696C383.082 19.8107 383.269 19.032 383.642 18.36C384.015 17.688 384.527 17.1707 385.178 16.808C385.839 16.4453 386.575 16.264 387.386 16.264C388.485 16.264 389.343 16.6107 389.962 17.304V13.128H392.458ZM387.818 23.08C388.447 23.08 388.97 22.8667 389.386 22.44C389.802 22.0027 390.01 21.4213 390.01 20.696C390.01 19.9707 389.802 19.3947 389.386 18.968C388.97 18.5307 388.447 18.312 387.818 18.312C387.178 18.312 386.65 18.5307 386.234 18.968C385.818 19.3947 385.61 19.9707 385.61 20.696C385.61 21.4213 385.818 22.0027 386.234 22.44C386.65 22.8667 387.178 23.08 387.818 23.08ZM403.92 16.392V25H401.552V23.976C401.222 24.3493 400.827 24.6373 400.368 24.84C399.91 25.032 399.414 25.128 398.88 25.128C397.75 25.128 396.854 24.8027 396.192 24.152C395.531 23.5013 395.2 22.536 395.2 21.256V16.392H397.696V20.888C397.696 22.2747 398.278 22.968 399.44 22.968C400.038 22.968 400.518 22.776 400.88 22.392C401.243 21.9973 401.424 21.416 401.424 20.648V16.392H403.92ZM410.409 21.624L409.209 22.808V25H406.713V13.128H409.209V19.848L412.857 16.392H415.833L412.249 20.04L416.153 25H413.129L410.409 21.624ZM421.071 16.264C422.404 16.264 423.428 16.584 424.143 17.224C424.858 17.8533 425.215 18.808 425.215 20.088V25H422.879V23.928C422.41 24.728 421.535 25.128 420.255 25.128C419.594 25.128 419.018 25.016 418.527 24.792C418.047 24.568 417.679 24.2587 417.423 23.864C417.167 23.4693 417.039 23.0213 417.039 22.52C417.039 21.72 417.338 21.0907 417.935 20.632C418.543 20.1733 419.476 19.944 420.735 19.944H422.719C422.719 19.4 422.554 18.984 422.223 18.696C421.892 18.3973 421.396 18.248 420.735 18.248C420.276 18.248 419.823 18.3227 419.375 18.472C418.938 18.6107 418.564 18.8027 418.255 19.048L417.359 17.304C417.828 16.9733 418.388 16.7173 419.039 16.536C419.7 16.3547 420.378 16.264 421.071 16.264ZM420.879 23.448C421.306 23.448 421.684 23.352 422.015 23.16C422.346 22.9573 422.58 22.664 422.719 22.28V21.4H421.007C419.983 21.4 419.471 21.736 419.471 22.408C419.471 22.728 419.594 22.984 419.839 23.176C420.095 23.3573 420.442 23.448 420.879 23.448ZM432.208 25.128C431.29 25.128 430.464 24.9413 429.728 24.568C429.002 24.184 428.432 23.656 428.016 22.984C427.61 22.312 427.408 21.5493 427.408 20.696C427.408 19.8427 427.61 19.08 428.016 18.408C428.432 17.736 429.002 17.2133 429.728 16.84C430.464 16.456 431.29 16.264 432.208 16.264C433.114 16.264 433.904 16.456 434.576 16.84C435.258 17.2133 435.754 17.752 436.064 18.456L434.128 19.496C433.68 18.7067 433.034 18.312 432.192 18.312C431.541 18.312 431.002 18.5253 430.576 18.952C430.149 19.3787 429.936 19.96 429.936 20.696C429.936 21.432 430.149 22.0133 430.576 22.44C431.002 22.8667 431.541 23.08 432.192 23.08C433.045 23.08 433.69 22.6853 434.128 21.896L436.064 22.952C435.754 23.6347 435.258 24.168 434.576 24.552C433.904 24.936 433.114 25.128 432.208 25.128ZM437.341 28.232C436.466 28.232 435.799 28.072 435.341 27.752L436.013 25.944C436.301 26.1467 436.653 26.248 437.069 26.248C437.389 26.248 437.639 26.1413 437.821 25.928C438.002 25.7253 438.093 25.416 438.093 25V16.392H440.589V24.984C440.589 25.9867 440.301 26.776 439.725 27.352C439.159 27.9387 438.365 28.232 437.341 28.232ZM439.341 15.192C438.882 15.192 438.509 15.0587 438.221 14.792C437.933 14.5253 437.789 14.1947 437.789 13.8C437.789 13.4053 437.933 13.0747 438.221 12.808C438.509 12.5413 438.882 12.408 439.341 12.408C439.799 12.408 440.173 12.536 440.461 12.792C440.749 13.048 440.893 13.368 440.893 13.752C440.893 14.168 440.749 14.5147 440.461 14.792C440.173 15.0587 439.799 15.192 439.341 15.192ZM446.839 16.264C448.172 16.264 449.196 16.584 449.911 17.224C450.626 17.8533 450.983 18.808 450.983 20.088V25H448.647V23.928C448.178 24.728 447.303 25.128 446.023 25.128C445.362 25.128 444.786 25.016 444.295 24.792C443.815 24.568 443.447 24.2587 443.191 23.864C442.935 23.4693 442.807 23.0213 442.807 22.52C442.807 21.72 443.106 21.0907 443.703 20.632C444.311 20.1733 445.244 19.944 446.503 19.944H448.487C448.487 19.4 448.322 18.984 447.991 18.696C447.66 18.3973 447.164 18.248 446.503 18.248C446.044 18.248 445.591 18.3227 445.143 18.472C444.706 18.6107 444.332 18.8027 444.023 19.048L443.127 17.304C443.596 16.9733 444.156 16.7173 444.807 16.536C445.468 16.3547 446.146 16.264 446.839 16.264ZM446.647 23.448C447.074 23.448 447.452 23.352 447.783 23.16C448.114 22.9573 448.348 22.664 448.487 22.28V21.4H446.775C445.751 21.4 445.239 21.736 445.239 22.408C445.239 22.728 445.362 22.984 445.607 23.176C445.863 23.3573 446.21 23.448 446.647 23.448Z" fill="white"/>
</g>
<g opacity="0.3">
<rect x="515" y="1" width="225" height="35" rx="17.5" fill="#A2A2A2" stroke="#A1A1A1" stroke-width="2"/>
<path d="M578.841 18.36C579.822 18.52 580.574 18.888 581.097 19.464C581.62 20.0293 581.881 20.7333 581.881 21.576C581.881 22.2267 581.71 22.8293 581.369 23.384C581.028 23.928 580.505 24.3653 579.801 24.696C579.108 25.0267 578.254 25.192 577.241 25.192C576.452 25.192 575.673 25.0907 574.905 24.888C574.148 24.6747 573.502 24.376 572.969 23.992L573.977 22.008C574.404 22.328 574.894 22.5787 575.449 22.76C576.014 22.9307 576.59 23.016 577.177 23.016C577.828 23.016 578.34 22.8933 578.713 22.648C579.086 22.392 579.273 22.0347 579.273 21.576C579.273 20.6587 578.574 20.2 577.177 20.2H575.993V18.488L578.297 15.88H573.529V13.8H581.369V15.48L578.841 18.36ZM585.03 25.128C584.592 25.128 584.224 24.9787 583.926 24.68C583.627 24.3813 583.478 24.008 583.478 23.56C583.478 23.1013 583.627 22.7333 583.926 22.456C584.224 22.168 584.592 22.024 585.03 22.024C585.467 22.024 585.835 22.168 586.134 22.456C586.432 22.7333 586.582 23.1013 586.582 23.56C586.582 24.008 586.432 24.3813 586.134 24.68C585.835 24.9787 585.467 25.128 585.03 25.128ZM599.301 25.192C598.159 25.192 597.125 24.9467 596.197 24.456C595.279 23.9547 594.554 23.2667 594.021 22.392C593.498 21.5067 593.237 20.5093 593.237 19.4C593.237 18.2907 593.498 17.2987 594.021 16.424C594.554 15.5387 595.279 14.8507 596.197 14.36C597.125 13.8587 598.165 13.608 599.317 13.608C600.287 13.608 601.162 13.7787 601.941 14.12C602.73 14.4613 603.391 14.952 603.925 15.592L602.261 17.128C601.503 16.2533 600.565 15.816 599.445 15.816C598.751 15.816 598.133 15.9707 597.589 16.28C597.045 16.5787 596.618 17 596.309 17.544C596.01 18.088 595.861 18.7067 595.861 19.4C595.861 20.0933 596.01 20.712 596.309 21.256C596.618 21.8 597.045 22.2267 597.589 22.536C598.133 22.8347 598.751 22.984 599.445 22.984C600.565 22.984 601.503 22.5413 602.261 21.656L603.925 23.192C603.391 23.8427 602.73 24.3387 601.941 24.68C601.151 25.0213 600.271 25.192 599.301 25.192ZM599.941 10.584H602.629L599.733 12.888H597.781L599.941 10.584ZM619.803 16.392L616.683 25H614.283L612.347 19.656L610.347 25H607.947L604.843 16.392H607.195L609.227 22.216L611.339 16.392H613.451L615.499 22.216L617.595 16.392H619.803ZM621.443 16.392H623.939V25H621.443V16.392ZM622.691 15.192C622.233 15.192 621.859 15.0587 621.571 14.792C621.283 14.5253 621.139 14.1947 621.139 13.8C621.139 13.4053 621.283 13.0747 621.571 12.808C621.859 12.5413 622.233 12.408 622.691 12.408C623.15 12.408 623.523 12.536 623.811 12.792C624.099 13.048 624.243 13.368 624.243 13.752C624.243 14.168 624.099 14.5147 623.811 14.792C623.523 15.0587 623.15 15.192 622.691 15.192ZM630.896 25.128C629.978 25.128 629.152 24.9413 628.416 24.568C627.69 24.184 627.12 23.656 626.704 22.984C626.298 22.312 626.096 21.5493 626.096 20.696C626.096 19.8427 626.298 19.08 626.704 18.408C627.12 17.736 627.69 17.2133 628.416 16.84C629.152 16.456 629.978 16.264 630.896 16.264C631.802 16.264 632.592 16.456 633.264 16.84C633.946 17.2133 634.442 17.752 634.752 18.456L632.816 19.496C632.368 18.7067 631.722 18.312 630.88 18.312C630.229 18.312 629.69 18.5253 629.264 18.952C628.837 19.3787 628.624 19.96 628.624 20.696C628.624 21.432 628.837 22.0133 629.264 22.44C629.69 22.8667 630.229 23.08 630.88 23.08C631.733 23.08 632.378 22.6853 632.816 21.896L634.752 22.952C634.442 23.6347 633.946 24.168 633.264 24.552C632.592 24.936 631.802 25.128 630.896 25.128ZM643.694 23.08V25H636.014V23.496L640.398 18.312H636.126V16.392H643.55V17.896L639.166 23.08H643.694ZM654.096 20.728C654.096 20.76 654.08 20.984 654.048 21.4H647.536C647.654 21.9333 647.931 22.3547 648.368 22.664C648.806 22.9733 649.35 23.128 650 23.128C650.448 23.128 650.843 23.064 651.184 22.936C651.536 22.7973 651.862 22.584 652.16 22.296L653.488 23.736C652.678 24.664 651.494 25.128 649.936 25.128C648.966 25.128 648.107 24.9413 647.36 24.568C646.614 24.184 646.038 23.656 645.632 22.984C645.227 22.312 645.024 21.5493 645.024 20.696C645.024 19.8533 645.222 19.096 645.616 18.424C646.022 17.7413 646.571 17.2133 647.264 16.84C647.968 16.456 648.752 16.264 649.616 16.264C650.459 16.264 651.222 16.4453 651.904 16.808C652.587 17.1707 653.12 17.6933 653.504 18.376C653.899 19.048 654.096 19.832 654.096 20.728ZM649.632 18.152C649.067 18.152 648.592 18.312 648.208 18.632C647.824 18.952 647.59 19.3893 647.504 19.944H651.744C651.659 19.4 651.424 18.968 651.04 18.648C650.656 18.3173 650.187 18.152 649.632 18.152ZM661.47 16.264C662.537 16.264 663.396 16.584 664.046 17.224C664.708 17.864 665.038 18.8133 665.038 20.072V25H662.542V20.456C662.542 19.7733 662.393 19.2667 662.094 18.936C661.796 18.5947 661.364 18.424 660.798 18.424C660.169 18.424 659.668 18.6213 659.294 19.016C658.921 19.4 658.734 19.976 658.734 20.744V25H656.238V16.392H658.622V17.4C658.953 17.0373 659.364 16.76 659.854 16.568C660.345 16.3653 660.884 16.264 661.47 16.264ZM667.781 16.392H670.277V25H667.781V16.392ZM669.029 15.192C668.57 15.192 668.197 15.0587 667.909 14.792C667.621 14.5253 667.477 14.1947 667.477 13.8C667.477 13.4053 667.621 13.0747 667.909 12.808C668.197 12.5413 668.57 12.408 669.029 12.408C669.487 12.408 669.861 12.536 670.149 12.792C670.437 13.048 670.581 13.368 670.581 13.752C670.581 14.168 670.437 14.5147 670.149 14.792C669.861 15.0587 669.487 15.192 669.029 15.192ZM681.505 20.728C681.505 20.76 681.489 20.984 681.457 21.4H674.945C675.063 21.9333 675.34 22.3547 675.777 22.664C676.215 22.9733 676.759 23.128 677.409 23.128C677.857 23.128 678.252 23.064 678.593 22.936C678.945 22.7973 679.271 22.584 679.569 22.296L680.897 23.736C680.087 24.664 678.903 25.128 677.345 25.128C676.375 25.128 675.516 24.9413 674.769 24.568C674.023 24.184 673.447 23.656 673.041 22.984C672.636 22.312 672.433 21.5493 672.433 20.696C672.433 19.8533 672.631 19.096 673.025 18.424C673.431 17.7413 673.98 17.2133 674.673 16.84C675.377 16.456 676.161 16.264 677.025 16.264C677.868 16.264 678.631 16.4453 679.313 16.808C679.996 17.1707 680.529 17.6933 680.913 18.376C681.308 19.048 681.505 19.832 681.505 20.728ZM677.041 18.152C676.476 18.152 676.001 18.312 675.617 18.632C675.233 18.952 674.999 19.3893 674.913 19.944H679.153C679.068 19.4 678.833 18.968 678.449 18.648C678.065 18.3173 677.596 18.152 677.041 18.152Z" fill="white"/>
</g>
<g opacity="0.3">
<rect x="772" y="1" width="225" height="35" rx="17.5" fill="#A2A2A2" stroke="#A1A1A1" stroke-width="2"/>
<path d="M850.415 22.648H848.591V25H846.063V22.648H840.031V20.904L845.311 13.8H848.031L843.135 20.536H846.143V18.44H848.591V20.536H850.415V22.648ZM853.455 25.128C853.018 25.128 852.65 24.9787 852.351 24.68C852.052 24.3813 851.903 24.008 851.903 23.56C851.903 23.1013 852.052 22.7333 852.351 22.456C852.65 22.168 853.018 22.024 853.455 22.024C853.892 22.024 854.26 22.168 854.559 22.456C854.858 22.7333 855.007 23.1013 855.007 23.56C855.007 24.008 854.858 24.3813 854.559 24.68C854.26 24.9787 853.892 25.128 853.455 25.128ZM869.742 22.6H864.542L863.55 25H860.894L865.886 13.8H868.446L873.454 25H870.734L869.742 22.6ZM868.926 20.632L867.15 16.344L865.374 20.632H868.926ZM880.152 16.264C881.218 16.264 882.077 16.584 882.728 17.224C883.389 17.864 883.72 18.8133 883.72 20.072V25H881.224V20.456C881.224 19.7733 881.074 19.2667 880.776 18.936C880.477 18.5947 880.045 18.424 879.48 18.424C878.85 18.424 878.349 18.6213 877.976 19.016C877.602 19.4 877.416 19.976 877.416 20.744V25H874.92V16.392H877.304V17.4C877.634 17.0373 878.045 16.76 878.536 16.568C879.026 16.3653 879.565 16.264 880.152 16.264ZM890.158 21.624L888.958 22.808V25H886.462V13.128H888.958V19.848L892.606 16.392H895.582L891.998 20.04L895.902 25H892.878L890.158 21.624ZM897.442 16.392H899.938V25H897.442V16.392ZM898.69 15.192C898.232 15.192 897.858 15.0587 897.57 14.792C897.282 14.5253 897.138 14.1947 897.138 13.8C897.138 13.4053 897.282 13.0747 897.57 12.808C897.858 12.5413 898.232 12.408 898.69 12.408C899.149 12.408 899.522 12.536 899.81 12.792C900.098 13.048 900.242 13.368 900.242 13.752C900.242 14.168 900.098 14.5147 899.81 14.792C899.522 15.0587 899.149 15.192 898.69 15.192ZM911.167 20.728C911.167 20.76 911.151 20.984 911.119 21.4H904.607C904.724 21.9333 905.001 22.3547 905.439 22.664C905.876 22.9733 906.42 23.128 907.071 23.128C907.519 23.128 907.913 23.064 908.255 22.936C908.607 22.7973 908.932 22.584 909.231 22.296L910.559 23.736C909.748 24.664 908.564 25.128 907.007 25.128C906.036 25.128 905.177 24.9413 904.431 24.568C903.684 24.184 903.108 23.656 902.703 22.984C902.297 22.312 902.095 21.5493 902.095 20.696C902.095 19.8533 902.292 19.096 902.687 18.424C903.092 17.7413 903.641 17.2133 904.335 16.84C905.039 16.456 905.823 16.264 906.687 16.264C907.529 16.264 908.292 16.4453 908.975 16.808C909.657 17.1707 910.191 17.6933 910.575 18.376C910.969 19.048 911.167 19.832 911.167 20.728ZM906.703 18.152C906.137 18.152 905.663 18.312 905.279 18.632C904.895 18.952 904.66 19.3893 904.575 19.944H908.815C908.729 19.4 908.495 18.968 908.111 18.648C907.727 18.3173 907.257 18.152 906.703 18.152ZM918.861 24.584C918.615 24.7653 918.311 24.904 917.949 25C917.597 25.0853 917.223 25.128 916.829 25.128C915.805 25.128 915.01 24.8667 914.445 24.344C913.89 23.8213 913.613 23.0533 913.613 22.04V18.504H912.285V16.584H913.613V14.488H916.109V16.584H918.253V18.504H916.109V22.008C916.109 22.3707 916.199 22.6533 916.381 22.856C916.573 23.048 916.839 23.144 917.181 23.144C917.575 23.144 917.911 23.0373 918.189 22.824L918.861 24.584ZM924.214 16.264C925.547 16.264 926.571 16.584 927.286 17.224C928 17.8533 928.358 18.808 928.358 20.088V25H926.022V23.928C925.552 24.728 924.678 25.128 923.398 25.128C922.736 25.128 922.16 25.016 921.67 24.792C921.19 24.568 920.822 24.2587 920.566 23.864C920.31 23.4693 920.182 23.0213 920.182 22.52C920.182 21.72 920.48 21.0907 921.078 20.632C921.686 20.1733 922.619 19.944 923.878 19.944H925.862C925.862 19.4 925.696 18.984 925.366 18.696C925.035 18.3973 924.539 18.248 923.878 18.248C923.419 18.248 922.966 18.3227 922.518 18.472C922.08 18.6107 921.707 18.8027 921.398 19.048L920.502 17.304C920.971 16.9733 921.531 16.7173 922.182 16.536C922.843 16.3547 923.52 16.264 924.214 16.264ZM924.022 23.448C924.448 23.448 924.827 23.352 925.158 23.16C925.488 22.9573 925.723 22.664 925.862 22.28V21.4H924.15C923.126 21.4 922.614 21.736 922.614 22.408C922.614 22.728 922.736 22.984 922.982 23.176C923.238 23.3573 923.584 23.448 924.022 23.448Z" fill="white"/>
</g>
</svg>
