<svg width="37" height="68" viewBox="0 0 37 68" fill="none" xmlns="http://www.w3.org/2000/svg">
<path d="M36.124 67.1242C37.292 65.9565 37.292 64.0633 36.124 62.8956L5.10577 31.8857C3.93775 30.718 2.04403 30.718 0.876011 31.8857C-0.292004 33.0534 -0.292004 34.9466 0.876011 36.1143L31.8942 67.1242C33.0622 68.2919 34.956 68.2919 36.124 67.1242Z" fill="#3065EC"/>
<path d="M0.876011 36.1143C2.04403 37.282 3.93775 37.282 5.10577 36.1143L36.124 5.1044C37.292 3.9367 37.292 2.04348 36.124 0.875777C34.956 -0.291926 33.0622 -0.291926 31.8942 0.875777L0.876011 31.8857C-0.292004 33.0534 -0.292004 34.9466 0.876011 36.1143Z" fill="#3065EC"/>
</svg>
