<svg width="37" height="68" viewBox="0 0 37 68" fill="none" xmlns="http://www.w3.org/2000/svg">
<path d="M0.876011 67.1242C-0.292004 65.9565 -0.292004 64.0633 0.876011 62.8956L31.8942 31.8857C33.0622 30.718 34.956 30.718 36.124 31.8857C37.292 33.0534 37.292 34.9466 36.124 36.1143L5.10577 67.1242C3.93775 68.2919 2.04403 68.2919 0.876011 67.1242Z" fill="#3065EC"/>
<path d="M36.124 36.1143C34.956 37.282 33.0622 37.282 31.8942 36.1143L0.876011 5.1044C-0.292004 3.9367 -0.292004 2.04348 0.876011 0.875777C2.04403 -0.291926 3.93775 -0.291926 5.10577 0.875777L36.124 31.8857C37.292 33.0534 37.292 34.9466 36.124 36.1143Z" fill="#3065EC"/>
</svg>
